<mxfile host="65bd71144e">
    <diagram id="xvUYVoJwrIPd5DqROoS7" name="Page-1">
        <mxGraphModel dx="370" dy="600" grid="1" gridSize="10" guides="1" tooltips="1" connect="1" arrows="1" fold="1" page="1" pageScale="1" pageWidth="850" pageHeight="1100" math="0" shadow="0">
            <root>
                <mxCell id="0"/>
                <mxCell id="1" parent="0"/>
                <mxCell id="2" value="NodeMap&lt;br&gt;&lt;br&gt;&lt;span class=&quot;hljs-operator&quot;&gt;-&lt;/span&gt; &lt;span class=&quot;hljs-variable&quot;&gt;id&lt;/span&gt;&lt;span class=&quot;hljs-operator&quot;&gt;:&lt;/span&gt; &lt;span class=&quot;hljs-built_in&quot;&gt;Integer&lt;/span&gt; &lt;span class=&quot;hljs-punctuation&quot;&gt;(primary&lt;/span&gt;&lt;span class=&quot;hljs-built_in&quot;&gt;Key&lt;/span&gt;&lt;span class=&quot;hljs-punctuation&quot;&gt;)&lt;/span&gt;&lt;br&gt;&lt;span class=&quot;hljs-operator&quot;&gt;-&lt;/span&gt; &lt;span class=&quot;hljs-type&quot;&gt;_mapName&lt;/span&gt;&lt;span class=&quot;hljs-operator&quot;&gt;:&lt;/span&gt; &lt;span class=&quot;hljs-built_in&quot;&gt;String&lt;/span&gt;&lt;br&gt;&lt;span class=&quot;hljs-operator&quot;&gt;-&lt;/span&gt; &lt;span class=&quot;hljs-type&quot;&gt;_nodeMap&lt;/span&gt;&lt;span class=&quot;hljs-operator&quot;&gt;:&lt;/span&gt; &lt;span class=&quot;hljs-built_in&quot;&gt;String&lt;/span&gt; &lt;span class=&quot;hljs-punctuation&quot;&gt;(&lt;/span&gt;&lt;span class=&quot;hljs-variable&quot;&gt;JSON&lt;/span&gt;&lt;span class=&quot;hljs-punctuation&quot;&gt;)&lt;br&gt;&lt;br&gt;+ &lt;span class=&quot;hljs-built_in&quot;&gt;__init__&lt;/span&gt;(mapName, nodeMap)&lt;br&gt;+ &lt;span class=&quot;hljs-built_in&quot;&gt;to_dict&lt;/span&gt;()&lt;br&gt;&lt;/span&gt;" style="rounded=0;whiteSpace=wrap;html=1;align=left;verticalAlign=top;" vertex="1" parent="1">
                    <mxGeometry x="80" y="40" width="200" height="140" as="geometry"/>
                </mxCell>
                <mxCell id="4" value="" style="edgeStyle=none;html=1;" edge="1" parent="1" source="5" target="6">
                    <mxGeometry relative="1" as="geometry"/>
                </mxCell>
                <mxCell id="5" value="def __init__(self, mapName, nodeMap)" style="rounded=1;whiteSpace=wrap;html=1;arcSize=50;" vertex="1" parent="1">
                    <mxGeometry x="40" y="250" width="260" height="30" as="geometry"/>
                </mxCell>
                <mxCell id="6" value="define self mapName and nodeMap" style="rounded=0;whiteSpace=wrap;html=1;" vertex="1" parent="1">
                    <mxGeometry x="110" y="320" width="120" height="60" as="geometry"/>
                </mxCell>
                <mxCell id="7" value="" style="edgeStyle=none;html=1;" edge="1" parent="1" source="8" target="9">
                    <mxGeometry relative="1" as="geometry"/>
                </mxCell>
                <mxCell id="8" value="def to_dict(self)" style="rounded=1;whiteSpace=wrap;html=1;arcSize=50;" vertex="1" parent="1">
                    <mxGeometry x="40" y="430" width="260" height="30" as="geometry"/>
                </mxCell>
                <mxCell id="9" value="return each map as a dictionary" style="rounded=0;whiteSpace=wrap;html=1;" vertex="1" parent="1">
                    <mxGeometry x="110" y="500" width="120" height="60" as="geometry"/>
                </mxCell>
            </root>
        </mxGraphModel>
    </diagram>
</mxfile>